<svg width="2560" height="529" viewBox="0 0 2560 529" fill="none" xmlns="http://www.w3.org/2000/svg">
<g clip-path="url(#clip0_69_53)">
<path d="M1200.14 414.25H1272.42V280C1272.42 266.23 1274.14 253 1278.16 241C1288.49 206 1317.75 181.33 1356.76 181.33C1393.47 181.33 1402.65 205.43 1402.65 241V375.23C1402.65 402.78 1414.12 414.23 1441.65 414.23H1511.07V352.86H1488.12C1480.12 352.86 1475.5 348.26 1475.5 340.23V226.06C1475.5 148.6 1438.21 114.75 1373.38 114.75C1314.29 114.75 1282.74 150.9 1270.11 175.57H1269C1269.71 171.396 1270.09 167.173 1270.14 162.94V154.34C1270.14 133.68 1257.53 121.63 1231.71 121.63H1164.59V183.63H1187.59C1195.59 183.63 1200.21 187.63 1200.21 196.25L1200.14 414.25ZM916.74 230.07C924.74 193.35 951.16 170.98 988.45 170.98C1018.28 170.98 1042.38 195.08 1043.53 230.07H916.74ZM839.86 267.94C839.86 351.14 900.11 421.13 997.05 421.13C1069.91 421.13 1114.66 376.95 1114.66 376.95L1084.25 326.47C1084.25 326.47 1049.25 359.17 1002.25 359.17C958.07 359.17 920.25 332.17 914.48 280.56H1116.42C1116.42 280.56 1118.13 262.2 1118.13 253.56C1118.13 176.1 1072.24 114.71 988.48 114.71C900.7 114.71 839.89 177.82 839.89 267.9M572 269.66C572 204.82 607.56 177.28 645.43 177.28C688.43 177.28 718.29 213.43 718.29 269.09C718.29 327.09 684.44 359.74 644.29 359.74C596.09 359.74 572 314.99 572 269.66ZM501.39 529H573.68V407.93C573.68 393.02 572.54 382.7 572.54 382.7H573.68C573.68 382.7 599.5 421.13 657.44 421.13C734.31 421.13 791.68 360.89 791.68 267.94C791.68 177.28 740.62 114.75 661.45 114.75C593.18 114.75 568.52 161.22 568.52 161.22H567.37V149.74C567.37 133.68 557.62 121.63 530.66 121.63H465.83V183.63H488.78C496.78 183.63 501.39 187.63 501.39 196.25V529ZM78 207.7C78 129.66 137.11 70 210.55 70C283.99 70 343.07 129.66 343.07 207.7C343.07 289.17 283.97 351.14 210.55 351.14C137.13 351.14 78 289.17 78 207.7ZM0 207.7C0 327.61 90.64 421.13 210.55 421.13C330.46 421.13 421.09 327.61 421.09 207.7C421.09 91.22 330.45 0 210.55 0C90.65 0 0 91.22 0 207.7Z" fill="white"/>
<path d="M2278.88 413.3H2359.78L2410.26 331.82C2414.26 325.51 2418.87 316.33 2418.87 316.33H2420C2420 316.33 2424 326.09 2428 331.82L2479.06 413.3H2560L2464.2 265.3L2513 192.4C2518.73 183.79 2523.32 182.65 2535.37 182.65H2556V120.65H2505.5C2480.82 120.65 2471.08 125.81 2457.88 148.19L2429.2 196.38C2425.2 203.84 2420.01 215.32 2420.01 215.32H2418.87C2418.87 215.32 2413.71 203.84 2409.69 196.38L2381 148.22C2367.8 125.84 2357.48 120.68 2333.38 120.68H2282.32V182.68H2303.55C2315.6 182.68 2320.18 183.82 2325.92 192.43L2374.11 265.3L2278.88 413.3ZM1995.5 267C1995.5 213.07 2035.07 175.77 2082.12 175.77C2129.73 175.77 2169.32 213.07 2169.32 267C2169.32 321.51 2129.73 358.23 2082.12 358.23C2035.12 358.23 1995.5 321.51 1995.5 267ZM1922.06 267C1922.06 357.08 1993.19 420.19 2082.12 420.19C2171.61 420.19 2242.76 357.08 2242.76 267C2242.76 177.49 2171.61 113.81 2082.12 113.81C1993.19 113.81 1922.06 177.49 1922.06 267ZM1686.85 413.3H1766L1887.64 82.24C1891.08 72.48 1895.64 69.62 1905.42 69.62H1916.33V5.93H1868.13C1839.45 5.93 1829.69 13.39 1820.52 39.21L1742.52 266.42C1734.52 289.37 1727.03 326.09 1727.03 326.09H1725.89C1725.89 326.09 1718.44 289.37 1710.4 266.42L1632.4 39.21C1623.22 13.39 1612.89 5.93 1584.21 5.93H1536.59V69.62H1546.92C1556.67 69.62 1561.26 72.48 1564.7 82.24L1686.85 413.3Z" fill="white"/>
</g>
<defs>
<clipPath id="clip0_69_53">
<rect width="2559.99" height="529" fill="white"/>
</clipPath>
</defs>
</svg>
