<svg width="2517" height="1596" viewBox="0 0 2517 1596" fill="none" xmlns="http://www.w3.org/2000/svg">
<g clip-path="url(#clip0_65_40)">
<path d="M1534.92 101.55L1508.18 239.95C1495.57 233.3 1469.05 222.75 1459.77 220.95L1534.92 101.55ZM1423.41 333.35C1456.41 333.81 1476.33 349.13 1497.32 377C1449.32 390.88 1421.47 368.25 1400.97 335.66C1405.89 335.19 1418.7 333.28 1423.41 333.35ZM1339.41 224.1C1289.68 238.18 1245.95 272.44 1229.25 301.82C1229.25 301.82 1251.69 125.46 1273.54 59.19C1299.98 105.44 1339.41 224.1 1339.41 224.1ZM1732.9 432.1C1682.6 419.94 1582.84 389.03 1574.99 328.73C1571.22 299.73 1547.84 267.62 1535.54 259.14L1556.73 39.59L1375.18 216.67C1375.18 216.67 1315.88 63.49 1273.18 0C1219.79 90.21 1156.97 264.13 1143.6 301.87L1267 650.8C1273.09 602.62 1304.56 549.19 1341.91 515.54C1312.91 477.87 1260.75 466.63 1238.81 481.17C1267.37 442.56 1322.5 391.9 1425.02 419.64C1470.57 431.98 1517.25 456.22 1547.08 462.8C1623.62 479.67 1680.9 459.31 1680.9 459.31C1680.3 477.363 1689.35 490.757 1708.03 499.49C1628.03 574.16 1523.03 513.49 1448.96 525.01C1374.15 536.62 1271.31 750.48 1257.46 780.85L1030.85 147.12L1027.49 137.76C1008.96 87.41 977.744 46.31 920.174 46.31H809.533V176.67H843.853C863.853 176.67 873.213 182.55 880.264 202.51L1146.17 924.48H1275.07L1298.73 867.38L1389.59 676.24C1428.41 590.05 1467.7 566.41 1581.87 571.46C1615.6 572.95 1685.41 573.52 1725.43 524.53C1783.07 453.97 1767.18 440.37 1732.93 432.1" fill="#1D1D1B"/>
<path d="M1179.98 1483.17H1251.05V1351.17C1251.05 1337.63 1252.75 1324.65 1256.71 1312.8C1266.86 1278.39 1295.63 1254.13 1333.98 1254.13C1370.08 1254.13 1379.11 1277.83 1379.11 1312.8V1444.8C1379.11 1471.87 1390.39 1483.15 1417.46 1483.15H1485.71V1422.8H1463.18C1455.28 1422.8 1450.77 1418.28 1450.77 1410.38V1298.14C1450.77 1221.97 1414.11 1188.7 1350.37 1188.7C1292.27 1188.7 1261.25 1224.24 1248.82 1248.49H1247.7C1248.4 1244.39 1248.77 1240.24 1248.82 1236.08V1227.67C1248.82 1207.36 1236.42 1195.51 1211.04 1195.51H1145.04V1256.44H1167.61C1175.5 1256.44 1180.01 1260.44 1180.01 1268.85L1179.98 1483.17ZM901.354 1302.08C909.244 1265.98 935.194 1243.98 971.854 1243.98C1001.18 1243.98 1024.85 1267.68 1026 1302.08H901.354ZM825.763 1339.32C825.763 1421.12 884.993 1489.94 980.314 1489.94C1051.94 1489.94 1095.94 1446.5 1095.94 1446.5L1066.04 1396.86C1066.04 1396.86 1031.64 1429.02 985.394 1429.02C941.964 1429.02 904.734 1402.5 899.094 1351.73H1097.64C1097.64 1351.73 1099.33 1333.67 1099.33 1325.22C1099.33 1249.05 1054.21 1188.7 971.854 1188.7C885.553 1188.7 825.763 1250.7 825.763 1339.32ZM562.352 1341.01C562.352 1277.26 597.352 1250.18 634.562 1250.18C676.863 1250.18 706.193 1285.72 706.193 1340.45C706.193 1397.45 672.913 1429.58 633.432 1429.58C586.052 1429.58 562.352 1385.58 562.352 1341.01ZM492.982 1596.01H564.052V1477.01C564.09 1468.72 563.713 1460.44 562.922 1452.19H564.052C564.052 1452.19 589.432 1489.98 646.403 1489.98C721.983 1489.98 778.403 1430.75 778.403 1339.36C778.403 1250.22 728.203 1188.74 650.403 1188.74C583.272 1188.74 559.022 1234.43 559.022 1234.43H557.892V1223.14C557.892 1207.35 548.302 1195.5 521.802 1195.5H458.012V1256.43H480.572C488.462 1256.43 492.982 1260.43 492.982 1268.84V1596.01ZM76.7203 1280.08C76.7203 1203.36 134.811 1144.69 207.011 1144.69C279.211 1144.69 337.311 1203.36 337.311 1280.08C337.311 1360.19 279.211 1421.08 207.011 1421.08C134.811 1421.08 76.7203 1360.15 76.7203 1280.08ZM0 1280.08C0 1397.99 89.1204 1489.94 207.001 1489.94C324.881 1489.94 414.002 1397.94 414.002 1280.08C414.002 1165.56 324.881 1075.87 207.001 1075.87C89.1204 1075.87 0 1165.56 0 1280.08Z" fill="#1D1D1B"/>
<path d="M2240.62 1482.24H2320.18L2369.81 1402.13C2373.76 1395.92 2378.27 1386.9 2378.27 1386.9H2379.4C2379.4 1386.9 2383.4 1396.49 2387.3 1402.13L2437.5 1482.24H2517.03L2422.81 1336.67L2470.76 1265.03C2476.4 1256.56 2480.91 1255.44 2492.76 1255.44H2513.07V1194.51H2463.43C2439.17 1194.51 2429.58 1199.58 2416.61 1221.59L2388.41 1268.97C2384.46 1276.31 2379.41 1287.59 2379.41 1287.59H2378.28C2378.28 1287.59 2373.21 1276.31 2369.28 1268.97L2341.08 1221.59C2328.08 1199.59 2317.95 1194.51 2294.26 1194.51H2244.06V1255.44H2264.93C2276.78 1255.44 2281.29 1256.56 2286.93 1265.03L2334.31 1336.67L2240.62 1482.24ZM1961.99 1338.38C1961.99 1285.38 2000.9 1248.69 2047.16 1248.69C2093.98 1248.69 2132.9 1285.36 2132.9 1338.38C2132.9 1391.98 2093.98 1428.08 2047.16 1428.08C2000.9 1428.08 1961.99 1391.98 1961.99 1338.38ZM1889.79 1338.38C1889.79 1426.95 1959.73 1489.01 2047.16 1489.01C2135.16 1489.01 2205.1 1426.95 2205.1 1338.38C2205.1 1250.38 2135.1 1187.76 2047.16 1187.76C1959.73 1187.76 1889.79 1250.38 1889.79 1338.38ZM1658.53 1482.24H1736.37L1855.95 1156.73C1859.33 1147.14 1863.84 1144.32 1873.43 1144.32H1884.18V1081.67H1836.8C1808.59 1081.67 1799 1089.01 1789.98 1114.39L1713.27 1337.79C1705.37 1360.36 1698.04 1396.46 1698.04 1396.46H1696.91C1696.91 1396.46 1689.59 1360.36 1681.68 1337.79L1604.98 1114.39C1595.98 1089.01 1585.8 1081.67 1557.59 1081.67H1510.78V1144.29H1520.93C1530.52 1144.29 1535.03 1147.11 1538.41 1156.7L1658.53 1482.24Z" fill="#1D1D1B"/>
</g>
<defs>
<clipPath id="clip0_65_40">
<rect width="2517" height="1596" fill="white"/>
</clipPath>
</defs>
</svg>
