<svg width="2560" height="538" viewBox="0 0 2560 538" fill="none" xmlns="http://www.w3.org/2000/svg">
<g clip-path="url(#clip0_64_18)">
<path d="M2464.81 276.007L2513.27 203.626C2518.97 195.083 2523.53 193.944 2535.5 193.944H2556.01V132.385H2505.86C2481.35 132.385 2471.67 137.47 2458.56 159.742L2430.08 207.623C2426.08 215.027 2420.92 226.428 2420.92 226.428H2419.78C2419.78 226.428 2414.7 215.027 2410.63 207.623L2382.15 159.742C2369.04 137.51 2358.76 132.385 2334.85 132.385H2284.13V193.944H2305.21C2317.18 193.944 2321.74 195.083 2327.43 203.626L2375.32 276.007L2280.73 423.067H2361.08L2411.24 342.133C2415.22 335.858 2419.77 326.746 2419.77 326.746H2420.91C2420.91 326.746 2424.91 336.438 2428.91 342.133L2479.65 423.078H2560L2464.81 276.007Z" fill="#1D1D1B"/>
<path d="M2085.24 125.54C2031.23 125.54 1983.83 149.186 1955.14 187.883C1957.06 188.381 1959.01 188.9 1961 189.358C1967.63 190.965 1983.15 194.717 1987.95 208.996C1992.47 222.411 1985.7 238.418 1964.62 264.23C1953.92 277.329 1940.29 285.109 1926.65 289.656C1932.65 372.715 2000.9 429.861 2085.24 429.861C2174.15 429.861 2244.83 367.172 2244.83 277.685C2244.83 188.809 2174.15 125.54 2085.24 125.54ZM2085.24 368.352C2038.45 368.352 1999.17 331.872 1999.17 277.726C1999.17 224.15 2038.49 187.1 2085.24 187.1C2132.54 187.1 2171.87 224.15 2171.87 277.726C2171.87 331.872 2132.54 368.352 2085.24 368.352Z" fill="#1D1D1B"/>
<path d="M1192.34 424.003H1264.14V290.642C1264.14 276.963 1265.86 263.854 1269.85 251.884C1280.1 217.112 1309.18 192.602 1347.93 192.602C1384.4 192.602 1393.54 216.542 1393.54 251.884V385.255C1393.54 412.612 1404.93 424.003 1432.29 424.003H1501.22V363.074H1478.41C1470.44 363.074 1465.87 358.507 1465.87 350.534V237.066C1465.87 160.119 1428.83 126.496 1364.42 126.496C1305.71 126.496 1274.37 162.397 1261.82 186.907H1260.69C1261.39 182.763 1261.77 178.57 1261.82 174.367V165.824C1261.82 145.301 1249.28 133.28 1223.64 133.28H1156.95V194.829H1179.82C1187.79 194.829 1192.36 198.826 1192.36 207.379L1192.34 424.003ZM910.778 241.032C918.762 204.552 944.973 182.33 981.974 182.33C1011.61 182.33 1035.55 206.271 1036.69 241.032H910.778ZM834.405 278.662C834.405 361.304 894.251 430.837 990.568 430.837C1062.95 430.837 1107.41 386.953 1107.41 386.953L1077.2 336.794C1077.2 336.794 1042.44 369.277 995.705 369.277C951.817 369.277 914.196 342.5 908.5 291.201H1109.13C1109.13 291.201 1110.83 272.956 1110.83 264.413C1110.83 187.466 1065.24 126.486 982.025 126.486C894.82 126.496 834.405 189.164 834.405 278.662ZM568.235 280.37C568.235 215.963 603.578 188.605 641.2 188.605C683.918 188.605 713.586 224.516 713.586 279.801C713.586 337.364 679.951 369.857 640.061 369.857C592.177 369.857 568.235 325.393 568.235 280.36M498.137 538H569.953V417.738C569.953 402.92 568.814 392.669 568.814 392.669H569.953C569.953 392.669 595.594 430.847 653.171 430.847C729.534 430.847 786.531 371.006 786.531 278.672C786.531 188.615 735.809 126.496 657.148 126.496C589.329 126.496 564.817 172.658 564.817 172.658H563.678V161.258C563.678 145.301 553.985 133.33 527.205 133.33H462.773V194.88H485.576C493.55 194.88 498.117 198.877 498.117 207.43L498.137 538ZM77.512 218.821C77.512 141.304 136.218 82.0323 209.173 82.0323C282.129 82.0323 340.835 141.304 340.835 218.821C340.835 299.754 282.129 361.314 209.173 361.314C136.218 361.314 77.512 299.754 77.512 218.821ZM0 218.821C0 337.943 90.0526 430.847 209.173 430.847C328.294 430.847 418.357 337.943 418.357 218.821C418.357 103.115 328.304 12.4991 209.173 12.4991C90.0424 12.4991 0 103.115 0 218.821Z" fill="#1D1D1B"/>
<path d="M1854.87 48.8166L1842.01 115.38C1835.91 112.187 1823.18 107.112 1818.73 106.227L1854.87 48.8166ZM1801.26 160.312C1817.12 160.546 1826.68 167.909 1836.85 181.323C1813.77 187.995 1800.37 177.103 1790.5 161.43C1792.86 161.207 1799.03 160.291 1801.3 160.312M1760.82 107.803C1736.89 114.567 1715.87 131.052 1707.84 145.168C1707.84 145.168 1718.63 60.3597 1729.13 28.4865C1741.85 50.7286 1760.82 107.814 1760.82 107.814M1950.1 207.847C1925.9 201.999 1877.88 187.13 1874.13 158.135C1872.32 144.172 1861.07 128.734 1855.16 124.665L1865.33 19.069L1777.98 104.224C1777.98 104.224 1749.51 30.5104 1728.95 0C1703.28 43.3756 1673.01 127.025 1666.62 145.179L1725.98 312.986C1728.91 289.808 1744.04 264.118 1762.02 247.897C1748.08 229.784 1722.97 224.373 1712.42 231.371C1726.16 212.8 1752.67 188.442 1801.99 201.786C1823.9 207.715 1846.35 219.38 1860.69 222.533C1897.51 230.669 1925.08 220.855 1925.08 220.855C1924.79 229.54 1929.14 235.981 1938.12 240.178C1899.65 276.099 1849.11 246.931 1813.5 252.453C1777.52 258.037 1728.07 360.897 1721.39 375.512L1612.41 70.7536L1610.79 66.2584C1601.91 42.0433 1586.85 22.2726 1559.19 22.2726H1500.51V84.9816H1522.47C1532.07 84.9816 1536.6 87.7987 1539.99 97.4095L1660.32 423.362H1738.3L1741.26 417.169L1784.99 325.241C1803.67 283.787 1822.62 272.417 1877.48 274.838C1893.7 275.57 1927.31 275.855 1946.54 252.28C1974.27 218.332 1966.61 211.803 1950.15 207.827" fill="#1D1D1B"/>
</g>
<defs>
<clipPath id="clip0_64_18">
<rect width="2560" height="538" fill="white"/>
</clipPath>
</defs>
</svg>
