<svg width="2560" height="2480" viewBox="0 0 2560 2480" fill="none" xmlns="http://www.w3.org/2000/svg">
<path d="M1946.22 272.41L1874.5 643.69C1840.68 625.85 1769.5 597.54 1744.63 592.69L1946.22 272.41ZM1647.04 894.24C1735.53 895.48 1789.04 936.58 1845.34 1011.35C1716.57 1048.57 1641.83 987.86 1586.84 900.44C1600.02 899.18 1634.38 894.07 1647.04 894.24ZM1421.62 601.15C1288.19 638.94 1170.91 730.85 1126.1 809.66C1126.1 809.66 1186.31 336.57 1244.88 158.79C1315.83 282.79 1421.62 601.15 1421.62 601.15ZM2477.4 1159.15C2342.4 1126.53 2074.76 1043.62 2053.7 881.86C2043.59 804.02 1980.87 717.86 1947.87 695.16L2004.72 106.16L1517.51 581.16C1517.51 581.16 1358.55 170.3 1243.9 0C1100.67 242 932.131 708.53 896.251 809.77L1227.33 1745.84C1243.68 1616.59 1328.09 1473.26 1428.27 1382.99C1350.61 1281.93 1210.56 1251.78 1151.7 1290.78C1228.31 1187.19 1376.21 1051.3 1651.26 1125.78C1773.5 1158.86 1898.71 1223.92 1978.75 1241.55C2184.12 1286.81 2337.81 1232.2 2337.81 1232.2C2336.23 1280.62 2360.49 1316.54 2410.61 1339.96C2196.05 1540.29 1914.1 1377.64 1715.5 1408.44C1514.8 1439.6 1238.87 2013.28 1201.73 2094.77L593.834 394.65L584.784 369.55C535.085 234.47 451.316 124.23 296.897 124.23H0V474H92.0791C145.659 474 170.858 489.75 189.768 543.32L903.121 2480H1248.99L1312.45 2326.81L1556.23 1814.06C1660.37 1582.85 1765.81 1519.41 2072.12 1532.97C2162.61 1536.97 2349.93 1538.51 2457.29 1407.09C2611.96 1217.78 2569.28 1181.33 2477.44 1159.09" fill="white"/>
</svg>
