<svg width="2560" height="896" viewBox="0 0 2560 896" fill="none" xmlns="http://www.w3.org/2000/svg">
<path d="M2033.23 701.641H2155.69V474.253C2155.69 450.93 2158.6 428.522 2165.41 408.197C2182.91 348.915 2232.48 307.13 2298.57 307.13C2360.77 307.13 2376.32 347.949 2376.32 408.197V635.55C2376.32 682.213 2395.75 701.607 2442.39 701.607H2560V597.661H2521.12C2507.57 597.661 2499.74 589.87 2499.74 576.269V382.892C2499.74 251.693 2436.56 194.359 2326.73 194.359C2226.62 194.359 2173.17 255.589 2151.77 297.374H2149.89C2151.09 290.304 2151.74 283.152 2151.83 275.982V261.415C2151.83 226.422 2130.46 206.012 2086.72 206.012H1973.01V311.025H2011.97C2025.53 311.025 2033.35 317.801 2033.35 332.401L2033.23 701.641ZM1553.11 389.684C1566.66 327.489 1611.42 289.599 1674.6 289.599C1725.13 289.599 1765.96 330.419 1767.91 389.684H1553.11ZM1422.86 453.827C1422.86 594.748 1524.93 713.294 1689.17 713.294C1812.6 713.294 1888.42 638.464 1888.42 638.464L1836.9 552.962C1836.9 552.962 1777.6 608.348 1697.98 608.348C1623.13 608.348 1559.05 562.617 1549.28 475.202H1891.4C1891.4 475.202 1894.3 444.104 1894.3 429.47C1894.3 298.271 1816.55 194.291 1674.65 194.291C1525.93 194.291 1422.91 301.185 1422.91 453.759M969.062 456.74C969.062 346.916 1029.31 300.27 1093.46 300.27C1166.31 300.27 1216.9 361.5 1216.9 455.774C1216.9 554.013 1159.55 609.314 1091.53 609.314C1009.87 609.314 969.062 533.518 969.062 456.74ZM849.437 896H971.908V690.936C971.908 665.682 969.977 648.203 969.977 648.203H971.908C971.908 648.203 1015.65 713.294 1113.81 713.294C1244.04 713.294 1341.24 611.262 1341.24 453.827C1341.24 300.27 1254.73 194.359 1120.6 194.359C1004.94 194.359 963.166 273.068 963.166 273.068H961.218V253.624C961.218 226.422 944.7 206.012 899.025 206.012H789.192V311.025H828.073C841.627 311.025 849.437 317.801 849.437 332.401V896ZM132.145 351.794C132.145 219.613 232.287 118.563 356.706 118.563C481.126 118.563 581.217 219.613 581.217 351.794C581.217 489.785 481.092 594.748 356.706 594.748C232.321 594.748 132.145 489.785 132.145 351.794ZM0 351.794C0 554.893 153.559 713.294 356.706 713.294C559.853 713.294 713.395 554.893 713.395 351.794C713.395 154.505 559.836 0 356.706 0C153.576 0 0 154.505 0 351.794Z" fill="#1D1D1B"/>
</svg>
