<svg width="2517" height="529" viewBox="0 0 2517 529" fill="none" xmlns="http://www.w3.org/2000/svg">
<path d="M2423.41 271.39L2471.05 200.22C2476.66 191.82 2481.14 190.7 2492.91 190.7H2513.08V130.17H2463.77C2439.67 130.17 2430.15 135.17 2417.26 157.07L2389.26 204.15C2385.33 211.43 2380.26 222.64 2380.26 222.64H2379.14C2379.14 222.64 2374.14 211.43 2370.14 204.15L2342.14 157.07C2329.25 135.21 2319.14 130.17 2295.63 130.17H2245.76V190.7H2266.49C2278.26 190.7 2282.74 191.82 2288.34 200.22L2335.42 271.39L2242.42 415.99H2321.42L2370.74 336.41C2374.65 330.24 2379.13 321.28 2379.13 321.28H2380.25C2380.25 321.28 2384.18 330.81 2388.11 336.41L2438 416H2517L2423.41 271.39Z" fill="white"/>
<path d="M2050.21 123.44C1997.11 123.44 1950.51 146.69 1922.3 184.74C1924.19 185.23 1926.1 185.74 1928.06 186.19C1934.58 187.77 1949.84 191.46 1954.56 205.5C1959 218.69 1952.35 234.43 1931.62 259.81C1921.1 272.69 1907.7 280.34 1894.29 284.81C1900.19 366.48 1967.29 422.67 2050.21 422.67C2137.63 422.67 2207.12 361.03 2207.12 273.04C2207.12 185.65 2137.63 123.44 2050.21 123.44ZM2050.21 362.19C2004.21 362.19 1965.59 326.32 1965.59 273.08C1965.59 220.4 2004.25 183.97 2050.21 183.97C2096.72 183.97 2135.39 220.4 2135.39 273.08C2135.39 326.32 2096.72 362.19 2050.21 362.19Z" fill="white"/>
<path d="M1172.31 416.91H1242.91V285.78C1242.91 272.33 1244.6 259.44 1248.52 247.67C1258.6 213.48 1287.19 189.38 1325.29 189.38C1361.15 189.38 1370.13 212.92 1370.13 247.67V378.81C1370.13 405.71 1381.33 416.91 1408.23 416.91H1476V357H1453.58C1445.74 357 1441.25 352.51 1441.25 344.67V233.1C1441.25 157.44 1404.83 124.38 1341.5 124.38C1283.78 124.38 1252.96 159.68 1240.63 183.78H1239.51C1240.2 179.706 1240.58 175.583 1240.63 171.45V163.05C1240.63 142.87 1228.3 131.05 1203.09 131.05H1137.52V191.57H1160C1167.84 191.57 1172.33 195.5 1172.33 203.91L1172.31 416.91ZM895.48 237C903.33 201.13 929.1 179.28 965.48 179.28C994.62 179.28 1018.16 202.82 1019.28 237H895.48ZM820.39 274C820.39 355.26 879.23 423.63 973.93 423.63C1045.1 423.63 1088.81 380.48 1088.81 380.48L1059.11 331.16C1059.11 331.16 1024.93 363.1 978.98 363.1C935.83 363.1 898.84 336.77 893.24 286.33H1090.5C1090.5 286.33 1092.17 268.39 1092.17 259.99C1092.17 184.33 1047.35 124.37 965.53 124.37C879.79 124.38 820.39 186 820.39 274ZM558.69 275.68C558.69 212.35 593.44 185.45 630.43 185.45C672.43 185.45 701.6 220.76 701.6 275.12C701.6 331.72 668.53 363.67 629.31 363.67C582.23 363.67 558.69 319.95 558.69 275.67M489.77 529H560.38V410.75C560.38 396.18 559.26 386.1 559.26 386.1H560.38C560.38 386.1 585.59 423.64 642.2 423.64C717.28 423.64 773.32 364.8 773.32 274.01C773.32 185.46 723.45 124.38 646.11 124.38C579.43 124.38 555.33 169.77 555.33 169.77H554.21V158.56C554.21 142.87 544.68 131.1 518.35 131.1H455V191.62H477.42C485.26 191.62 489.75 195.55 489.75 203.96L489.77 529ZM76.21 215.16C76.21 138.94 133.93 80.66 205.66 80.66C277.39 80.66 335.11 138.94 335.11 215.16C335.11 294.74 277.39 355.27 205.66 355.27C133.93 355.27 76.21 294.74 76.21 215.16ZM0 215.16C0 332.29 88.54 423.64 205.66 423.64C322.78 423.64 411.33 332.29 411.33 215.16C411.33 101.39 322.79 12.29 205.66 12.29C88.53 12.29 0 101.39 0 215.16Z" fill="white"/>
<path d="M1823.71 48L1811.07 113.45C1805.07 110.31 1792.56 105.32 1788.18 104.45L1823.71 48ZM1771 157.63C1786.6 157.86 1796 165.1 1806 178.29C1783.3 184.85 1770.13 174.14 1760.43 158.73C1762.75 158.51 1768.81 157.61 1771.04 157.63M1731.24 106C1707.72 112.65 1687.05 128.86 1679.15 142.74C1679.15 142.74 1689.76 59.35 1700.09 28.01C1712.59 49.88 1731.24 106.01 1731.24 106.01M1917.34 204.37C1893.55 198.62 1846.34 184 1842.65 155.49C1840.87 141.76 1829.81 126.58 1824 122.58L1834 18.75L1748.12 102.48C1748.12 102.48 1720.12 30 1699.91 0C1674.67 42.65 1644.91 124.9 1638.63 142.75L1696.99 307.75C1699.87 284.96 1714.75 259.7 1732.42 243.75C1718.72 225.94 1694.03 220.62 1683.66 227.5C1697.17 209.24 1723.23 185.29 1771.72 198.41C1793.26 204.24 1815.34 215.71 1829.44 218.81C1865.64 226.81 1892.74 217.16 1892.74 217.16C1892.46 225.7 1896.74 232.033 1905.57 236.16C1867.74 271.48 1818.05 242.8 1783.04 248.23C1747.66 253.72 1699.04 354.86 1692.48 369.23L1585.33 69.57L1583.73 65.15C1575 41.34 1560.2 21.9 1533 21.9H1475.31V83.56H1496.9C1506.34 83.56 1510.79 86.33 1514.12 95.78L1632.43 416.28H1709.1L1712.01 410.19L1755.01 319.8C1773.37 279.04 1792.01 267.86 1845.94 270.24C1861.89 270.96 1894.94 271.24 1913.84 248.06C1941.11 214.68 1933.58 208.26 1917.39 204.35" fill="white"/>
</svg>
